<svg width="260" height="260" viewBox="0 0 260 260" fill="none" xmlns="http://www.w3.org/2000/svg">
<g clip-path="url(#clip0_1470_6810)">
<path fill-rule="evenodd" clip-rule="evenodd" d="M0 51V203V260H83H176H260V203V51V0H176H83H0V51ZM176 51H83V203H176V51Z" fill="white"/>
<path d="M164.85 60.1099H94.9102V64.4199H164.85V60.1099Z" fill="url(#paint0_linear_1470_6810)"/>
<path d="M94.9101 57.96H93.0601V192.27H94.9101V57.96Z" fill="url(#paint1_linear_1470_6810)"/>
<path d="M166.71 57.96H164.85V192.26H166.71V57.96Z" fill="url(#paint2_linear_1470_6810)"/>
<path opacity="0.63" d="M164.36 60.5801H161.59V189.89H164.36V60.5801Z" fill="url(#paint3_linear_1470_6810)"/>
<path opacity="0.4" d="M98.6299 60.5698H95.3799V189.89H98.6299V60.5698Z" fill="url(#paint4_linear_1470_6810)"/>
<g opacity="0.5">
<path d="M166.7 58.21V192.27H93.0601V58.21H166.7ZM166.95 57.96H92.8101V192.52H166.95V57.96Z" fill="white"/>
</g>
<g opacity="0.18">
<path d="M164.35 60.6099V189.87H95.4102V60.6099H164.35ZM164.85 60.1099H94.9102V190.37H164.85V60.1099Z" fill="white"/>
</g>
<path d="M166.95 57.96H92.8101V60.15H166.95V57.96Z" fill="url(#paint5_linear_1470_6810)"/>
<path opacity="0.74" d="M164.37 60.5801H95.3799V63.0101H164.37V60.5801Z" fill="url(#paint6_linear_1470_6810)"/>
<path d="M161.96 62.9897H97.8003V187.48H161.96V62.9897Z" fill="url(#paint7_linear_1470_6810)"/>
<path style="mix-blend-mode:screen" d="M97.8003 62.9897V187.49H106.8L148.56 63.0197L97.8003 62.9897Z" fill="url(#paint8_linear_1470_6810)"/>
<path d="M80.29 47V202.51H179.48V47H80.29ZM172.49 196.85H87.53V53.59H172.49V196.84V196.85Z" fill="url(#paint9_linear_1470_6810)"/>
<path style="mix-blend-mode:multiply" opacity="0.5" d="M80.29 47V202.51L87.53 196.84V52.74L80.29 47Z" fill="url(#paint10_linear_1470_6810)"/>
<path style="mix-blend-mode:multiply" opacity="0.6" d="M172.49 52.74V196.84L179.47 202.51V47L172.49 52.74Z" fill="url(#paint11_linear_1470_6810)"/>
<path style="mix-blend-mode:multiply" opacity="0.8" d="M87.53 52.81H172.49L179.47 47H80.29L87.53 52.81Z" fill="url(#paint12_linear_1470_6810)"/>
<path d="M187.48 202.89H182.36L175.6 199.43H84.43L77.67 202.89H72.55L70 203.7V212.03H190.03V203.7L187.48 202.89Z" fill="url(#paint13_linear_1470_6810)"/>
</g>
<defs>
<linearGradient id="paint0_linear_1470_6810" x1="129.88" y1="64.2499" x2="129.88" y2="60.0799" gradientUnits="userSpaceOnUse">
<stop stop-opacity="0"/>
<stop offset="0.94" stop-opacity="0.6"/>
<stop offset="1" stop-opacity="0.7"/>
</linearGradient>
<linearGradient id="paint1_linear_1470_6810" x1="94.8401" y1="125.12" x2="93.0401" y2="125.12" gradientUnits="userSpaceOnUse">
<stop stop-opacity="0"/>
<stop offset="0.93" stop-opacity="0.6"/>
<stop offset="0.99" stop-opacity="0.7"/>
</linearGradient>
<linearGradient id="paint2_linear_1470_6810" x1="164.92" y1="125.11" x2="166.72" y2="125.11" gradientUnits="userSpaceOnUse">
<stop stop-opacity="0"/>
<stop offset="0.93" stop-opacity="0.6"/>
<stop offset="0.99" stop-opacity="0.7"/>
</linearGradient>
<linearGradient id="paint3_linear_1470_6810" x1="161.7" y1="125.24" x2="164.39" y2="125.24" gradientUnits="userSpaceOnUse">
<stop stop-opacity="0"/>
<stop offset="0.93" stop-opacity="0.6"/>
<stop offset="0.99" stop-opacity="0.7"/>
</linearGradient>
<linearGradient id="paint4_linear_1470_6810" x1="98.5099" y1="125.23" x2="95.3599" y2="125.23" gradientUnits="userSpaceOnUse">
<stop stop-opacity="0"/>
<stop offset="0.93" stop-opacity="0.6"/>
<stop offset="0.99" stop-opacity="0.7"/>
</linearGradient>
<linearGradient id="paint5_linear_1470_6810" x1="129.88" y1="60.07" x2="129.88" y2="57.94" gradientUnits="userSpaceOnUse">
<stop stop-opacity="0"/>
<stop offset="0.94" stop-opacity="0.6"/>
<stop offset="1" stop-opacity="0.7"/>
</linearGradient>
<linearGradient id="paint6_linear_1470_6810" x1="129.87" y1="62.9101" x2="129.87" y2="60.5601" gradientUnits="userSpaceOnUse">
<stop stop-opacity="0"/>
<stop offset="0.94" stop-opacity="0.6"/>
<stop offset="1" stop-opacity="0.7"/>
</linearGradient>
<linearGradient id="paint7_linear_1470_6810" x1="129.88" y1="62.9897" x2="129.88" y2="187.49" gradientUnits="userSpaceOnUse">
<stop stop-color="#D3D4D6"/>
<stop offset="1" stop-color="#FAFBFF"/>
</linearGradient>
<linearGradient id="paint8_linear_1470_6810" x1="123.18" y1="62.9897" x2="123.18" y2="187.49" gradientUnits="userSpaceOnUse">
<stop stop-color="white" stop-opacity="0.6"/>
<stop offset="1" stop-color="#FAFBFF" stop-opacity="0"/>
</linearGradient>
<linearGradient id="paint9_linear_1470_6810" x1="129.88" y1="-25.34" x2="129.88" y2="-25.34" gradientUnits="userSpaceOnUse">
<stop stop-color="#EEEEEE"/>
<stop offset="1" stop-color="#D4D4D4"/>
</linearGradient>
<linearGradient id="paint10_linear_1470_6810" x1="80.53" y1="-25.34" x2="85.84" y2="-25.34" gradientUnits="userSpaceOnUse">
<stop stop-color="white"/>
<stop offset="0.25" stop-color="#FAFAFA"/>
<stop offset="0.54" stop-color="#EDEDED"/>
<stop offset="0.83" stop-color="#D6D6D6"/>
<stop offset="1" stop-color="#C7C7C7"/>
</linearGradient>
<linearGradient id="paint11_linear_1470_6810" x1="172.73" y1="-25.34" x2="177.85" y2="-25.34" gradientUnits="userSpaceOnUse">
<stop stop-color="#E4E4E4"/>
<stop offset="0.79" stop-color="#CDCDCD"/>
<stop offset="1" stop-color="#C7C7C7"/>
</linearGradient>
<linearGradient id="paint12_linear_1470_6810" x1="129.88" y1="-25.3401" x2="129.88" y2="-25.3401" gradientUnits="userSpaceOnUse">
<stop stop-color="#C7C7C7"/>
<stop offset="0.32" stop-color="#CECECE"/>
<stop offset="0.78" stop-color="#E2E2E2"/>
<stop offset="1" stop-color="#EEEEEE"/>
</linearGradient>
<linearGradient id="paint13_linear_1470_6810" x1="130.015" y1="211.8" x2="130.015" y2="199.38" gradientUnits="userSpaceOnUse">
<stop stop-color="#B8B8B8"/>
<stop offset="0.03" stop-color="#BFBFBF"/>
<stop offset="0.11" stop-color="#CBCBCB"/>
<stop offset="0.21" stop-color="#D2D2D2"/>
<stop offset="0.51" stop-color="#D4D4D4"/>
<stop offset="0.55" stop-color="#DBDBDB"/>
<stop offset="0.61" stop-color="#F0F0F0"/>
<stop offset="0.64" stop-color="white"/>
<stop offset="0.7" stop-color="#EEEEEE"/>
<stop offset="1" stop-color="#E0E0E0"/>
</linearGradient>
<clipPath id="clip0_1470_6810">
<rect width="260" height="260" fill="white"/>
</clipPath>
</defs>
</svg>
