<svg width="272" height="120" viewBox="0 0 272 120" fill="none" xmlns="http://www.w3.org/2000/svg">
<rect x="1" y="1" width="270" height="118" rx="4" stroke="#D9D9D9" stroke-width="2"/>
<g clip-path="url(#clip0_1476_44528)">
<path fill-rule="evenodd" clip-rule="evenodd" d="M86 60L6 5L6 115L86 60ZM84.2349 60L7 6.90103L7 113.099L84.2349 60Z" fill="#D9D9D9"/>
</g>
<rect x="6.5" y="5.5" width="79" height="109" rx="4.5" stroke="#D9D9D9"/>
<g clip-path="url(#clip1_1476_44528)">
<path fill-rule="evenodd" clip-rule="evenodd" d="M176 60L96 5L96 115L176 60ZM174.235 60L97 6.90103L97 113.099L174.235 60Z" fill="#D9D9D9"/>
</g>
<rect x="96.5" y="5.5" width="79" height="109" rx="4.5" stroke="#D9D9D9"/>
<g clip-path="url(#clip2_1476_44528)">
<path fill-rule="evenodd" clip-rule="evenodd" d="M186 60L266 5L266 115L186 60ZM187.765 60L265 6.90103L265 113.099L187.765 60Z" fill="#D9D9D9"/>
</g>
<rect x="186.5" y="5.5" width="79" height="109" rx="4.5" stroke="#D9D9D9"/>
<defs>
<clipPath id="clip0_1476_44528">
<rect x="6" y="5" width="80" height="110" rx="5" fill="white"/>
</clipPath>
<clipPath id="clip1_1476_44528">
<rect x="96" y="5" width="80" height="110" rx="5" fill="white"/>
</clipPath>
<clipPath id="clip2_1476_44528">
<rect x="186" y="5" width="80" height="110" rx="5" fill="white"/>
</clipPath>
</defs>
</svg>
