<svg width="272" height="120" viewBox="0 0 272 120" fill="none" xmlns="http://www.w3.org/2000/svg">
<rect x="1" y="1" width="270" height="118" rx="4" stroke="#D9D9D9" stroke-width="2"/>
<rect x="6.5" y="5.5" width="79" height="109" rx="4.5" stroke="#D9D9D9"/>
<path fill-rule="evenodd" clip-rule="evenodd" d="M53.364 52.6359C52.9734 52.2454 52.3403 52.2454 51.9497 52.6359L47 57.5857L42.0503 52.6359C41.6597 52.2454 41.0266 52.2454 40.636 52.6359C40.2455 53.0265 40.2455 53.6596 40.636 54.0501L45.5858 58.9999L40.636 63.9496C40.2455 64.3402 40.2455 64.9733 40.636 65.3639C41.0266 65.7544 41.6597 65.7544 42.0503 65.3639L47 60.4141L51.9497 65.3639C52.3403 65.7544 52.9734 65.7544 53.364 65.3639C53.7545 64.9733 53.7545 64.3402 53.364 63.9496L48.4142 58.9999L53.364 54.0501C53.7545 53.6596 53.7545 53.0265 53.364 52.6359Z" fill="#D9D9D9"/>
<g clip-path="url(#clip0_1476_44781)">
<path fill-rule="evenodd" clip-rule="evenodd" d="M176 60L96 5L96 115L176 60ZM174.235 60L97 6.90103L97 113.099L174.235 60Z" fill="#D9D9D9"/>
</g>
<rect x="96.5" y="5.5" width="79" height="109" rx="4.5" stroke="#D9D9D9"/>
<rect x="186.5" y="5.5" width="79" height="109" rx="4.5" stroke="#D9D9D9"/>
<path fill-rule="evenodd" clip-rule="evenodd" d="M233.364 52.6359C232.973 52.2454 232.34 52.2454 231.95 52.6359L227 57.5857L222.05 52.6359C221.66 52.2454 221.027 52.2454 220.636 52.6359C220.246 53.0265 220.246 53.6596 220.636 54.0501L225.586 58.9999L220.636 63.9496C220.246 64.3402 220.246 64.9733 220.636 65.3639C221.027 65.7544 221.66 65.7544 222.05 65.3639L227 60.4141L231.95 65.3639C232.34 65.7544 232.973 65.7544 233.364 65.3639C233.754 64.9733 233.754 64.3402 233.364 63.9496L228.414 58.9999L233.364 54.0501C233.754 53.6596 233.754 53.0265 233.364 52.6359Z" fill="#D9D9D9"/>
<defs>
<clipPath id="clip0_1476_44781">
<rect x="96" y="5" width="80" height="110" rx="5" fill="white"/>
</clipPath>
</defs>
</svg>
