<svg width="90" height="120" viewBox="0 0 90 120" fill="none" xmlns="http://www.w3.org/2000/svg">
<rect x="1" y="1" width="88" height="118" rx="4" stroke="#D9D9D9" stroke-width="2"/>
<rect x="5.5" y="5.5" width="79" height="109" rx="4.5" stroke="#D9D9D9"/>
<path fill-rule="evenodd" clip-rule="evenodd" d="M52.364 52.6359C51.9734 52.2454 51.3403 52.2454 50.9497 52.6359L46 57.5857L41.0503 52.6359C40.6597 52.2454 40.0266 52.2454 39.636 52.6359C39.2455 53.0265 39.2455 53.6596 39.636 54.0501L44.5858 58.9999L39.636 63.9496C39.2455 64.3402 39.2455 64.9733 39.636 65.3639C40.0266 65.7544 40.6597 65.7544 41.0503 65.3639L46 60.4141L50.9497 65.3639C51.3403 65.7544 51.9734 65.7544 52.364 65.3639C52.7545 64.9733 52.7545 64.3402 52.364 63.9496L47.4142 58.9999L52.364 54.0501C52.7545 53.6596 52.7545 53.0265 52.364 52.6359Z" fill="#D9D9D9"/>
</svg>
