<svg width="272" height="120" viewBox="0 0 272 120" fill="none" xmlns="http://www.w3.org/2000/svg">
<rect x="1" y="1" width="270" height="118" rx="4" stroke="#D9D9D9" stroke-width="2"/>
<g clip-path="url(#clip0_1476_44646)">
<path fill-rule="evenodd" clip-rule="evenodd" d="M86 59.5L6 5L6 114L86 59.5ZM84.2239 59.5L7 6.89125L7 112.109L84.2239 59.5Z" fill="#D9D9D9"/>
<path fill-rule="evenodd" clip-rule="evenodd" d="M46 5L86 115L6 115L46 5ZM46 7.92618L84.5723 114L7.4277 114L46 7.92618Z" fill="#D9D9D9"/>
</g>
<rect x="6.5" y="5.5" width="79" height="109" rx="4.5" stroke="#D9D9D9"/>
<g clip-path="url(#clip1_1476_44646)">
<path fill-rule="evenodd" clip-rule="evenodd" d="M96 59.5L176 5L176 114L96 59.5ZM97.7761 59.5L175 6.89125L175 112.109L97.7761 59.5Z" fill="#D9D9D9"/>
<path fill-rule="evenodd" clip-rule="evenodd" d="M136 5L176 115L96 115L136 5ZM136 7.92618L174.572 114L97.4277 114L136 7.92618Z" fill="#D9D9D9"/>
</g>
<rect x="96.5" y="5.5" width="79" height="109" rx="4.5" stroke="#D9D9D9"/>
<g clip-path="url(#clip2_1476_44646)">
<path fill-rule="evenodd" clip-rule="evenodd" d="M186 59.5L266 5L266 114L186 59.5ZM187.776 59.5L265 6.89125L265 112.109L187.776 59.5Z" fill="#D9D9D9"/>
<path fill-rule="evenodd" clip-rule="evenodd" d="M226 5L266 115L186 115L226 5ZM226 7.92618L264.572 114L187.428 114L226 7.92618Z" fill="#D9D9D9"/>
</g>
<rect x="186.5" y="5.5" width="79" height="109" rx="4.5" stroke="#D9D9D9"/>
<defs>
<clipPath id="clip0_1476_44646">
<rect x="6" y="5" width="80" height="110" rx="5" fill="white"/>
</clipPath>
<clipPath id="clip1_1476_44646">
<rect x="96" y="5" width="80" height="110" rx="5" fill="white"/>
</clipPath>
<clipPath id="clip2_1476_44646">
<rect x="186" y="5" width="80" height="110" rx="5" fill="white"/>
</clipPath>
</defs>
</svg>
