<svg width="182" height="120" viewBox="0 0 182 120" fill="none" xmlns="http://www.w3.org/2000/svg">
<rect x="1" y="1" width="180" height="118" rx="4" stroke="#D9D9D9" stroke-width="2"/>
<g clip-path="url(#clip0_1476_44456)">
<path fill-rule="evenodd" clip-rule="evenodd" d="M86 60L6 5L6 115L86 60ZM84.2349 60L7 6.90103L7 113.099L84.2349 60Z" fill="#D9D9D9"/>
</g>
<rect x="6.5" y="5.5" width="79" height="109" rx="4.5" stroke="#D9D9D9"/>
<g clip-path="url(#clip1_1476_44456)">
<path fill-rule="evenodd" clip-rule="evenodd" d="M96 59.5L176 5L176 114L96 59.5ZM97.7761 59.5L175 6.89125L175 112.109L97.7761 59.5Z" fill="#D9D9D9"/>
<path fill-rule="evenodd" clip-rule="evenodd" d="M136 5L176 115L96 115L136 5ZM136 7.92618L174.572 114L97.4277 114L136 7.92618Z" fill="#D9D9D9"/>
</g>
<rect x="96.5" y="5.5" width="79" height="109" rx="4.5" stroke="#D9D9D9"/>
<defs>
<clipPath id="clip0_1476_44456">
<rect x="6" y="5" width="80" height="110" rx="5" fill="white"/>
</clipPath>
<clipPath id="clip1_1476_44456">
<rect x="96" y="5" width="80" height="110" rx="5" fill="white"/>
</clipPath>
</defs>
</svg>
