<svg width="182" height="120" viewBox="0 0 182 120" fill="none" xmlns="http://www.w3.org/2000/svg">
<rect x="1" y="1" width="180" height="118" rx="4" stroke="#D9D9D9" stroke-width="2"/>
<g clip-path="url(#clip0_1476_44504)">
<path fill-rule="evenodd" clip-rule="evenodd" d="M86 60L6 5L6 115L86 60ZM84.2349 60L7 6.90103L7 113.099L84.2349 60Z" fill="#D9D9D9"/>
</g>
<rect x="6.5" y="5.5" width="79" height="109" rx="4.5" stroke="#D9D9D9"/>
<rect x="96.5" y="5.5" width="79" height="109" rx="4.5" stroke="#D9D9D9"/>
<path fill-rule="evenodd" clip-rule="evenodd" d="M143.364 52.6359C142.973 52.2454 142.34 52.2454 141.95 52.6359L137 57.5857L132.05 52.6359C131.66 52.2454 131.027 52.2454 130.636 52.6359C130.246 53.0265 130.246 53.6596 130.636 54.0501L135.586 58.9999L130.636 63.9496C130.246 64.3402 130.246 64.9733 130.636 65.3639C131.027 65.7544 131.66 65.7544 132.05 65.3639L137 60.4141L141.95 65.3639C142.34 65.7544 142.973 65.7544 143.364 65.3639C143.754 64.9733 143.754 64.3402 143.364 63.9496L138.414 58.9999L143.364 54.0501C143.754 53.6596 143.754 53.0265 143.364 52.6359Z" fill="#D9D9D9"/>
<defs>
<clipPath id="clip0_1476_44504">
<rect x="6" y="5" width="80" height="110" rx="5" fill="white"/>
</clipPath>
</defs>
</svg>
